<svg xmlns="http://www.w3.org/2000/svg"
     viewBox="0 0 1600 1600"
     aria-label="NASA ADS"
     role="img">

  <g fill="#ffffff" fill-rule="evenodd">
    <path d="M1334.429 372.863c167.179 267.542 85.818 619.953-181.724 787.132-211.381 132.086-475.74 109.024-659.865-38.43l27.364-17.099c173.906 133.695 419.439 152.882 616.394 29.81 253.315-158.288 330.349-491.958 172.06-745.273-108.59-173.781-281.563-266.283-472.666-255.073-52.249 3.065-96.523 18.203-96.523 18.203s-2.311-15.904-5.64-25.633c234.03-63.227 455.082 13.486 600.6 246.363zM292.071 798.821l27.425-17.137c-25.37-126.991-7.42-249.52 55.129-361.336 0 0-15.407-16.785-24.442-21.548-66.77 120.84-88.28 263.448-58.112 400.021z"/>

    <g transform="rotate(58 401.872 931.722)">
      <path d="M16.58 303.935c16.406-56.528 45.044-110.483 86.197-157.824C254.594-28.534 519.243-47.04 693.889 104.777c174.645 151.817 193.151 416.466 41.334 591.112-151.817 174.645-416.466 193.151-591.112 41.334-42.007-36.516-74.98-79.56-98.724-126.31 25.115-38.958 39.689-85.353 39.689-135.151 0-66.57-26.043-127.056-68.495-171.827z"/>

      <circle cx="424.029" cy="424.029" r="300.029"/>
      <circle cx="424" cy="424" r="260"/>

      <path d="M447.781 831.883v134h-71v-134z"/>
      <path d="M342.104 1118.535l-2.583-147.994.276 15.824c-.713-40.863 31.826-74.567 72.697-75.28 40.863-.714 74.567 31.836 75.28 72.697l-1-57.358 2.582 147.98 3.987 228.382c.713 40.86-31.826 74.562-72.697 75.276-40.863.713-74.567-31.836-75.28-72.705l-3.262-186.822z"/>
      <path d="M403.676 1376.394c4.827.99 9.825 1.51 14.945 1.51 40.878 0 74-33.131 74-74v-334.866c0-40.877-33.13-74.008-74-74.008a74.21 74.21 0 00-16.866 1.93c33.704 6.912 59.054 36.742 59.054 72.497v334.867c0 35.067-24.386 64.438-57.133 72.07z"/>
      <path d="M414.887 836.373h35v85.38l-35-9.447z"/>
    </g>

    <path d="M891.207 286.103C891.207 208.726 828.48 146 751.103 146 673.726 146 611 208.726 611 286.103c0 77.377 62.726 140.104 140.103 140.104 77.377 0 140.104-62.727 140.104-140.104z" transform="translate(-263 -76)"/>

    <path d="M882.344,688.734 Q844.062,688.734 824.703,701.750 Q805.453,714.656 805.453,740.031 Q805.453,760.141 820.320,771.469 Q835.188,782.797 861.469,782.797 Q897.344,782.797 918.922,757.422 Q940.641,732.047 940.641,690.047 L940.641,688.734 L882.344,688.734 Z M998.750,664.328 L998.750,861.000 L940.641,861.000 L940.641,808.625 Q920.109,840.047 889.516,855.031 Q858.922,869.875 814.719,869.875 Q758.781,869.875 725.484,839.281 Q692.188,808.547 692.188,757.422 Q692.188,697.812 732.047,667.359 Q772.047,636.906 851.375,636.906 L940.641,636.906 L940.641,630.672 Q940.641,604.000 922.375,589.641 Q904.250,575.156 868.797,575.156 Q837.891,575.156 808.250,582.547 Q778.609,589.938 751.250,604.719 L751.250,552.344 Q782.344,540.234 813.234,534.453 Q844.125,528.531 873.328,528.531 Q952.266,528.531 975.508,569.469 Q998.750,610.406 998.750,664.328 Z"/>
  </g>
</svg>
